# xmcd
#
# Track frame offsets:
#	150
#	17101
#	36974
#	55298
#	73802
#	93621
#	115058
#	131000
#	143199
#	159111
#	178350
#	196622
#	213779
#	233464
#	248904
#
# Disc length: 3530 seconds
# Revision: 0
# Processed by: cddbd v1.5.2PL0 Copyright (c) Steve Scherf et al.
# Submitted via: dBpowerAMP V12.0
#
DISCID=ce0dc80f
DTITLE=Firefall - Firefall ★ Luna Sea ★ Elan (2/2) (2016 HDAR)
DYEAR=1978
DGENRE=70s Rock
TTITLE0=Getaway
TTITLE1=Only A Fool
TTITLE2=Head On Home
TTITLE3=Piece Of Paper
TTITLE4=Even Steven
TTITLE5=Strange Way
TTITLE6=Sweet And Sour
TTITLE7=Wrong Side Of Town
TTITLE8=Count Your Blessings
TTITLE9=Get You Back
TTITLE10=Anymore
TTITLE11=Baby
TTITLE12=Goodbye, I Love You
TTITLE13=Sweet Ann
TTITLE14=Winds Of Change
EXTD=
EXTT0=
EXTT1=
EXTT2=
EXTT3=
EXTT4=
EXTT5=
EXTT6=
EXTT7=
EXTT8=
EXTT9=
EXTT10=
EXTT11=
EXTT12=
EXTT13=
EXTT14=
PLAYORDER=
